<?xml version="1.0" encoding="utf-8"?>
<!-- Generator: Adobe Illustrator 24.3.0, SVG Export Plug-In . SVG Version: 6.00 Build 0)  -->
<svg version="1.1" id="_x30_" xmlns="http://www.w3.org/2000/svg" xmlns:xlink="http://www.w3.org/1999/xlink" x="0px" y="0px"
	 viewBox="0 0 1417.3 566.9" style="enable-background:new 0 0 1417.3 566.9;" xml:space="preserve">
<style type="text/css">
	.st0{fill:none;stroke:#000000;stroke-width:0.7087;stroke-linecap:round;stroke-linejoin:round;stroke-miterlimit:10;}
</style>
<g id="LWPOLYLINE">
	<path class="st0" d="M465.8,439.9c0-15.7,12.7-28.3,28.3-28.3h240.9c15.7,0,28.3-12.7,28.3-28.3V184.8c0-15.7-12.7-28.3-28.3-28.3
		H494.1c-15.7,0-28.3-12.7-28.3-28.3V71.4h39.7V81h79.4v-9.6h39.7V81h79.4v-9.6h39.7V81h79.4v-9.6h39.7v240.9H853v32.6h9.6v34H853
		v32.6h9.6v85H465.8V439.9z"/>
</g>
<g id="LWPOLYLINE_1_">
	<path class="st0" d="M442.6,439.9c0-15.7-12.7-28.3-28.3-28.3H173.3c-15.7,0-28.3-12.7-28.3-28.3V184.8c0-15.7,12.7-28.3,28.3-28.3
		h240.9c15.7,0,28.3-12.7,28.3-28.3V71.4h-39.7V81h-79.4v-9.6h-39.7V81h-79.4v-9.6h-39.7V81H85.5v-9.6H45.8v240.9h9.6v32.6h-9.6v34
		h9.6v32.6h-9.6v85h396.9V439.9z"/>
</g>
<g id="LWPOLYLINE_2_">
	<polygon class="st0" points="253.4,234.4 650.2,234.4 650.2,267 640.6,267 640.6,301 650.2,301 650.2,333.6 253.4,333.6 253.4,301 
		263,301 263,267 253.4,267 	"/>
</g>
<g id="CIRCLE">
	<path class="st0" d="M1003.3,284c0-54.8,44.4-99.2,99.2-99.2s99.2,44.4,99.2,99.2s-44.4,99.2-99.2,99.2S1003.3,338.8,1003.3,284
		L1003.3,284z"/>
</g>
<g id="LWPOLYLINE_3_">
	<polygon class="st0" points="913.7,85.5 1291.3,85.5 1291.3,125.2 1300.9,125.2 1300.9,204.6 1291.3,204.6 1291.3,244.3 
		1300.9,244.3 1300.9,323.6 1291.3,323.6 1291.3,363.3 1300.9,363.3 1300.9,442.7 1291.3,442.7 1291.3,482.4 913.7,482.4 
		913.7,442.7 904.1,442.7 904.1,363.3 913.7,363.3 913.7,323.6 904.1,323.6 904.1,244.3 913.7,244.3 913.7,204.6 904.1,204.6 
		904.1,125.2 913.7,125.2 	"/>
</g>
</svg>
